[img]http://img696.imageshack.us/img696/5602/hannahv.jpg[/img]
[code]
Hanna 2011 CAM V2 XViD - IMAGiNE

Ripper ...........: IMAGiNE                                      IMDB Rating.......: 7.8/10                          
Video Codec.......: XVID                                         Release Date......: 11/05/11
Audio Codec.......: MP3                                          Theatre Date......: 08/04/11
Audio Bitrate.....: 128                                          Runtime.......: 1h 43mn
Subtitles.........: NIL                                          Language..........: ENGLISH
Resolution......: 720 x 304                                     IMDb URL..........: http://www.imdb.com/title/tt0993842/


DETAILS:


Video
ID                               : 0
Format                           : MPEG-4 Visual
Format profile                   : Advanced Simple@L5
Format settings, BVOP            : 2
Format settings, QPel            : No
Format settings, GMC             : No warppoints
Format settings, Matrix          : Default (MPEG)
Muxing mode                      : Packed bitstream
Codec ID                         : XVID
Codec ID/Hint                    : XviD
Duration                         : 1h 43mn
Bit rate                         : 1 759 Kbps
Width                            : 720 pixels
Height                           : 304 pixels
Display aspect ratio             : 2.35:1
Frame rate                       : 25.000 fps
Color space                      : YUV
Chroma subsampling               : 4:2:0
Bit depth                        : 8 bits
Scan type                        : Progressive
Compression mode                 : Lossy
Bits/(Pixel*Frame)               : 0.321
Stream size                      : 1.27 GiB (93%)
Writing library                  : XviD 61

Audio
ID                               : 1
Format                           : MPEG Audio
Format version                   : Version 1
Format profile                   : Layer 3
Mode                             : Joint stereo
Mode extension                   : MS Stereo
Codec ID                         : 55
Codec ID/Hint                    : MP3
Duration                         : 1h 43mn
Bit rate mode                    : Constant
Bit rate                         : 128 Kbps
Channel(s)                       : 2 channels
Sampling rate                    : 44.1 KHz
Compression mode                 : Lossy
Stream size                      : 94.7 MiB (7%)
Alignment                        : Split accross interleaves
Interleave, duration             : 40 ms (1.00 video frame)
Writing library                  : LAME3.98r

Plot:
A 16-year-old who was raised by her father to be the perfect assassin is dispatched on a mission across Europe, tracked by a ruthless intelligence agent and her operatives.

SOURCES:
VIDEO: KiNOPARK ...... Thanx Mate 
AUDIO: LKRG .......... Thanx Matey 

NOTES:
IMAGiNE bringing you another release..........

Alright here we go with our V2 cam of Hanna.....

The video was much improved over V1, thanx to KiNOPARK for the source files So, we made a script to crop, resize and sharpen....
Due to movement, several cuts were needed,then cropped rotated and resized and appended together.....

Next we ran a few filters to level out the colours.....

The audio is same from V1, synced and muxed to our encode.....

English subs hardcoded in yellow when needed And as always.....

Enjoy Folks!
[/code]
Screens:
[img]http://img837.imageshack.us/img837/774/65999796.jpg[/img]
[img]http://img687.imageshack.us/img687/8947/20219128.jpg[/img]
[img]http://img809.imageshack.us/img809/4828/77090100.jpg[/img]
[img]http://img848.imageshack.us/img848/7015/40280151.jpg[/img]
Size:
[CODE]
1.38GB
[/CODE]
Info hash: 
[code]
1B2E8AB69651B89979CEB10DF709A1922993DB9B
[/code]
Tracker list
[code] 
http://exodus.1337x.org/announce 
http://nemesis.1337x.org/announce 
http://genesis.1337x.org:1337/announce
[/code]
[hide][attachment=1073:Hanna 2011 CAM V2 XViD - IMAGiNE (1).torrent][/hide]